<svg width="379" height="111" viewBox="0 0 379 111" fill="none" xmlns="http://www.w3.org/2000/svg">
<path d="M56.32 83.43C65.0467 82.0367 73.15 76.94 80.63 68.14C83.93 64.18 86.46 60.4033 88.22 56.81C89.98 53.1433 90.86 49.8433 90.86 46.91C90.86 44.7833 90.2367 43.0967 88.99 41.85C87.7433 40.53 86.0933 39.87 84.04 39.87C81.9867 39.87 79.7867 40.42 77.44 41.52C75.1667 42.62 72.8933 44.0867 70.62 45.92C68.42 47.7533 66.2933 49.88 64.24 52.3C62.1867 54.72 60.3533 57.25 58.74 59.89C57.2 62.53 55.9533 65.2067 55 67.92C54.12 70.6333 53.68 73.2 53.68 75.62C53.68 78.8467 54.56 81.45 56.32 83.43ZM83.71 13.47C79.8967 11.5633 75.6433 10.0967 70.95 9.06999C66.2567 7.97 61.6 7.42 56.98 7.42C52.2133 7.42 47.7033 8.04333 43.45 9.29C39.1967 10.4633 35.42 12.0767 32.12 14.13C28.8933 16.11 26.3267 18.42 24.42 21.06C22.5133 23.7 21.56 26.4867 21.56 29.42C21.56 32.94 23.0267 35.8733 25.96 38.22C28.8933 40.5667 32.9633 42.07 38.17 42.73C43.23 35.69 49.5733 29.7133 57.2 24.8C64.8267 19.8133 73.6633 16.0367 83.71 13.47ZM97.02 23.48C100.027 20.9133 101.53 18.6033 101.53 16.55C101.53 15.3767 100.98 14.46 99.88 13.8C98.8533 13.14 97.4967 12.81 95.81 12.81C94.6367 12.81 93.4267 12.92 92.18 13.14C91.0067 13.2867 89.4667 13.6533 87.56 14.24C89.6867 15.6333 91.52 17.1367 93.06 18.75C94.6733 20.29 95.9933 21.8667 97.02 23.48ZM96.03 24.47C95.0767 23.15 94.2333 22.05 93.5 21.17C92.7667 20.2167 92.0333 19.41 91.3 18.75C90.64 18.0167 89.87 17.3567 88.99 16.77C88.1833 16.1833 87.1567 15.4867 85.91 14.68C82.61 15.78 79.2733 17.2833 75.9 19.19C72.6 21.0967 69.3367 23.2967 66.11 25.79C62.9567 28.2833 59.95 30.9967 57.09 33.93C54.3033 36.79 51.81 39.7967 49.61 42.95C53.2033 42.6567 57.1267 41.96 61.38 40.86C65.7067 39.76 69.96 38.3667 74.14 36.68C78.3933 34.9933 82.4267 33.0867 86.24 30.96C90.1267 28.8333 93.39 26.67 96.03 24.47ZM48.84 44.05C45.3933 48.9633 42.8633 53.5467 41.25 57.8C39.6367 61.98 38.83 66.05 38.83 70.01C38.83 74.2633 40.0767 77.6367 42.57 80.13C45.0633 82.55 48.4733 83.76 52.8 83.76C53.02 83.76 53.2767 83.76 53.57 83.76C53.8633 83.76 54.1933 83.7233 54.56 83.65C51.9933 80.6433 50.71 77.0867 50.71 72.98C50.71 68.6533 51.7733 64.3633 53.9 60.11C56.1 55.8567 59.2167 51.97 63.25 48.45C66.6233 45.4433 70.1433 43.0967 73.81 41.41C77.4767 39.65 80.7767 38.77 83.71 38.77C86.4967 38.77 88.66 39.5767 90.2 41.19C91.74 42.8033 92.51 45.15 92.51 48.23C92.51 52.19 91.3 56.4067 88.88 60.88C86.46 65.3533 83.16 69.4967 78.98 73.31C77.2933 74.7767 75.6433 76.0967 74.03 77.27C72.4167 78.4433 70.73 79.47 68.97 80.35C67.21 81.23 65.3767 81.9633 63.47 82.55C61.5633 83.21 59.4733 83.7967 57.2 84.31C58.5933 85.3367 59.9133 86.0333 61.16 86.4C62.4067 86.84 63.8733 87.06 65.56 87.06C68.1267 87.06 70.6933 86.5833 73.26 85.63C75.8267 84.6767 78.5033 83.1367 81.29 81.01C81.8033 80.6433 82.0967 80.46 82.17 80.46C82.2433 80.3867 82.3533 80.35 82.5 80.35C82.72 80.35 82.83 80.46 82.83 80.68C82.83 80.9 82.61 81.1933 82.17 81.56C81.8033 81.8533 80.96 82.4033 79.64 83.21C74.8733 86.29 70.07 87.83 65.23 87.83C61.4167 87.83 58.1533 86.73 55.44 84.53C54.4133 84.6033 53.68 84.64 53.24 84.64C52.8733 84.64 52.5067 84.64 52.14 84.64C49.1333 84.64 46.3467 84.09 43.78 82.99C41.2133 81.9633 38.9767 80.5333 37.07 78.7C35.2367 76.7933 33.8067 74.5567 32.78 71.99C31.7533 69.35 31.24 66.49 31.24 63.41C31.24 57.03 33.2933 50.4667 37.4 43.72C31.5333 42.6933 27.06 40.86 23.98 38.22C20.9 35.58 19.36 32.17 19.36 27.99C19.36 24.7633 20.3133 21.72 22.22 18.86C24.2 15.9267 26.84 13.3967 30.14 11.27C33.44 9.07 37.29 7.34666 41.69 6.09999C46.1633 4.85333 50.8933 4.23 55.88 4.23C66.22 4.23 76.1933 7.16333 85.8 13.03C87.7067 12.6633 89.3933 12.4067 90.86 12.26C92.3267 12.04 93.83 11.93 95.37 11.93C100.137 11.93 102.52 13.3967 102.52 16.33C102.52 17.43 102.117 18.6033 101.31 19.85C100.503 21.0967 99.22 22.5633 97.46 24.25C98.6333 26.3767 99.4767 28.3933 99.99 30.3C100.503 32.1333 100.76 34.04 100.76 36.02C100.76 37.12 100.467 37.67 99.88 37.67C99.66 37.67 99.5133 37.6333 99.44 37.56C99.44 37.4133 99.44 37.0467 99.44 36.46C99.44 32.5733 98.4867 28.7967 96.58 25.13C93.4267 27.55 89.87 29.86 85.91 32.06C81.95 34.1867 77.8433 36.0933 73.59 37.78C69.3367 39.4667 65.0833 40.86 60.83 41.96C56.5767 43.06 52.58 43.7567 48.84 44.05ZM102.548 68.03C104.968 67.37 106.948 66.6367 108.488 65.83C110.101 65.0233 111.568 63.9967 112.888 62.75C114.134 61.5033 115.161 60.1833 115.968 58.79C116.774 57.3967 117.178 56.1867 117.178 55.16C117.178 54.06 116.554 53.51 115.308 53.51C113.841 53.51 111.971 54.83 109.698 57.47C107.424 60.0367 105.041 63.5567 102.548 68.03ZM102.218 68.8C101.411 70.1933 100.751 71.7333 100.238 73.42C99.7242 75.0333 99.4675 76.4633 99.4675 77.71C99.4675 80.79 101.228 82.33 104.748 82.33C111.421 82.33 118.424 76.7567 125.758 65.61C126.344 64.73 126.784 64.29 127.078 64.29C127.298 64.29 127.408 64.3633 127.408 64.51C127.408 64.73 127.151 65.2067 126.638 65.94C126.124 66.6733 125.501 67.5533 124.768 68.58C124.108 69.5333 123.338 70.5233 122.458 71.55C121.651 72.5767 120.918 73.42 120.258 74.08C117.178 77.38 114.354 79.7267 111.788 81.12C109.294 82.5133 106.691 83.21 103.978 83.21C100.458 83.21 97.5608 82.22 95.2875 80.24C93.0142 78.26 91.8775 75.73 91.8775 72.65C91.8775 70.3767 92.6108 68.0667 94.0775 65.72C95.5442 63.3733 97.4142 61.2467 99.6875 59.34C102.034 57.4333 104.601 55.8933 107.388 54.72C110.248 53.4733 113.071 52.85 115.858 52.85C117.691 52.85 119.194 53.29 120.368 54.17C121.614 55.05 122.238 56.1133 122.238 57.36C122.238 59.7067 120.551 61.8333 117.178 63.74C113.804 65.6467 108.818 67.3333 102.218 68.8ZM142.607 69.68L144.147 67.81C144.367 67.59 144.587 67.37 144.807 67.15C145.027 66.93 145.504 66.4167 146.237 65.61C146.604 63.85 147.154 62.2 147.887 60.66C148.621 59.0467 149.464 57.69 150.417 56.59C151.444 55.4167 152.544 54.5 153.717 53.84C154.891 53.18 156.101 52.85 157.347 52.85C158.814 52.85 159.547 53.4733 159.547 54.72C159.547 55.16 159.401 55.6367 159.107 56.15C158.887 56.59 158.447 57.14 157.787 57.8C157.201 58.3867 156.321 59.12 155.147 60C154.047 60.88 152.617 61.9067 150.857 63.08C149.757 63.8867 148.951 64.4733 148.437 64.84C147.997 65.2067 147.484 65.61 146.897 66.05C146.824 66.4167 146.787 66.7467 146.787 67.04C146.787 67.3333 146.787 67.59 146.787 67.81C146.787 69.4967 147.264 70.89 148.217 71.99C149.171 73.0167 150.381 73.53 151.847 73.53C154.927 73.53 158.337 70.89 162.077 65.61C162.664 64.73 163.104 64.29 163.397 64.29C163.617 64.29 163.727 64.3633 163.727 64.51C163.727 64.6567 163.581 64.95 163.287 65.39C162.994 65.7567 162.627 66.2333 162.187 66.82C161.821 67.3333 161.381 67.8833 160.867 68.47C160.427 69.0567 159.987 69.57 159.547 70.01C156.907 72.87 154.377 74.3 151.957 74.3C148.217 74.3 146.274 71.8067 146.127 66.82C144.147 68.7267 142.167 71.0733 140.187 73.86C138.207 76.6467 136.374 79.7633 134.687 83.21C133.954 82.99 133.257 82.8433 132.597 82.77C131.937 82.6967 130.984 82.66 129.737 82.66C128.417 82.66 127.354 82.6967 126.547 82.77C125.814 82.8433 124.934 82.99 123.907 83.21L131.497 70.56C134.064 66.4533 136.007 63.1167 137.327 60.55C138.647 57.9833 139.307 56.37 139.307 55.71C139.307 54.61 138.757 54.06 137.657 54.06C137.144 54.06 136.484 54.39 135.677 55.05C134.871 55.6367 133.954 56.4433 132.927 57.47C131.974 58.4967 130.947 59.7433 129.847 61.21C128.821 62.6767 127.757 64.2167 126.657 65.83C126.291 66.27 126.034 66.49 125.887 66.49C125.667 66.49 125.557 66.38 125.557 66.16C125.557 66.0867 125.741 65.7567 126.107 65.17C126.474 64.5833 126.914 63.9233 127.427 63.19C128.014 62.3833 128.637 61.54 129.297 60.66C129.957 59.78 130.581 58.9733 131.167 58.24C132.781 56.26 134.174 54.8667 135.347 54.06C136.521 53.2533 137.804 52.85 139.197 52.85C141.104 52.85 142.644 53.51 143.817 54.83C144.991 56.15 145.577 57.8733 145.577 60C145.577 63.3733 144.257 66.9667 141.617 70.78L142.607 69.68ZM187.493 52.63L187.053 53.4H180.013L166.153 76.72C165.2 78.4067 164.723 79.58 164.723 80.24C164.723 81.4867 165.383 82.11 166.703 82.11C168.83 82.11 171.287 80.79 174.073 78.15C176.86 75.4367 180.123 71.2567 183.863 65.61C184.45 64.73 184.927 64.29 185.293 64.29C185.44 64.29 185.513 64.3633 185.513 64.51C185.513 64.6567 185.22 65.17 184.633 66.05C184.047 66.8567 183.35 67.8467 182.543 69.02C181.737 70.12 180.857 71.2567 179.903 72.43C179.023 73.6033 178.253 74.5933 177.593 75.4C175.32 78.1867 173.267 80.2033 171.433 81.45C169.673 82.6233 167.877 83.21 166.043 83.21C163.917 83.21 162.083 82.4767 160.543 81.01C159.077 79.5433 158.343 77.7467 158.343 75.62C158.343 74.3733 158.6 73.0533 159.113 71.66C159.7 70.2667 160.8 68.25 162.413 65.61L169.673 53.4H164.173L164.613 52.63H170.113L176.383 42.07C177.19 42.4367 177.85 42.6567 178.363 42.73C178.95 42.8033 179.72 42.84 180.673 42.84C181.7 42.84 182.543 42.8033 183.203 42.73C183.863 42.6567 185.037 42.4367 186.723 42.07L180.453 52.63H187.493ZM206.663 34.59C207.689 34.59 208.496 34.92 209.083 35.58C209.669 36.1667 209.963 36.9733 209.963 38C209.963 39.0267 209.633 40.1267 208.973 41.3C208.386 42.4 207.616 43.4267 206.663 44.38C205.783 45.3333 204.756 46.1033 203.582 46.69C202.483 47.2767 201.419 47.57 200.393 47.57C198.119 47.57 196.983 46.4333 196.983 44.16C196.983 43.1333 197.276 42.07 197.863 40.97C198.523 39.7967 199.329 38.77 200.283 37.89C201.236 36.9367 202.263 36.1667 203.363 35.58C204.536 34.92 205.636 34.59 206.663 34.59ZM188.953 74.63C188.293 75.73 187.779 76.61 187.413 77.27C187.046 77.8567 186.789 78.3333 186.643 78.7C186.496 79.0667 186.386 79.36 186.313 79.58C186.313 79.7267 186.313 79.91 186.313 80.13C186.313 80.6433 186.496 81.0833 186.863 81.45C187.303 81.8167 187.816 82 188.403 82C191.923 82 197.386 76.5367 204.793 65.61C205.379 64.73 205.819 64.29 206.113 64.29C206.333 64.29 206.443 64.3633 206.443 64.51C206.443 64.6567 206.149 65.1333 205.563 65.94C205.049 66.6733 204.389 67.59 203.582 68.69C202.849 69.79 202.006 70.9633 201.053 72.21C200.173 73.3833 199.366 74.4467 198.633 75.4C196.359 78.1867 194.306 80.2033 192.473 81.45C190.639 82.6233 188.769 83.21 186.863 83.21C184.956 83.21 183.306 82.4767 181.913 81.01C180.593 79.5433 179.933 77.7833 179.933 75.73C179.933 74.41 180.189 73.0167 180.703 71.55C181.289 70.01 182.243 68.14 183.563 65.94L191.482 52.63C192.216 52.85 192.913 52.9967 193.573 53.07C194.306 53.1433 195.186 53.18 196.213 53.18C196.873 53.18 197.716 53.1433 198.743 53.07C199.843 52.9233 200.906 52.7767 201.933 52.63L188.953 74.63ZM223.317 51.42C225.151 50.4667 227.131 49.1467 229.257 47.46C231.384 45.7733 233.474 43.94 235.527 41.96C237.581 39.9067 239.561 37.78 241.467 35.58C243.374 33.38 245.061 31.2533 246.527 29.2C247.994 27.1467 249.131 25.24 249.937 23.48C250.817 21.72 251.257 20.2533 251.257 19.08C251.257 18.4933 251.074 18.0167 250.707 17.65C250.414 17.2833 250.011 17.1 249.497 17.1C247.297 17.1 244.327 19.3 240.587 23.7C236.921 28.1 232.851 34.37 228.377 42.51C227.424 44.1967 226.654 45.5533 226.067 46.58C225.554 47.5333 225.114 48.3033 224.747 48.89C224.454 49.4033 224.197 49.8433 223.977 50.21C223.831 50.5767 223.611 50.98 223.317 51.42ZM231.457 52.63L231.017 53.4H222.217L211.107 73.2C208.981 76.94 206.964 80.2767 205.057 83.21C203.224 86.1433 201.354 88.7833 199.447 91.13C197.614 93.55 195.744 95.6767 193.837 97.51C191.931 99.4167 189.951 101.14 187.897 102.68C184.597 105.173 181.297 107.08 177.997 108.4C174.624 109.72 171.471 110.38 168.537 110.38C167.071 110.38 165.787 110.16 164.687 109.72C163.514 109.353 162.927 108.913 162.927 108.4C162.927 107.96 163.184 107.74 163.697 107.74C163.844 107.74 164.211 107.887 164.797 108.18C165.531 108.547 166.411 108.84 167.437 109.06C168.391 109.28 169.381 109.39 170.407 109.39C175.174 109.39 179.611 107.007 183.717 102.24C184.597 101.287 185.367 100.37 186.027 99.49C186.614 98.6833 187.421 97.4367 188.447 95.75C189.401 94.0633 190.721 91.68 192.407 88.6C194.094 85.5933 196.441 81.34 199.447 75.84L211.657 53.4H205.387L205.827 52.63H212.097L214.517 48.45C218.624 41.3367 222.694 35.5067 226.727 30.96C230.761 26.4133 235.087 22.7467 239.707 19.96C243.594 17.54 246.674 16.33 248.947 16.33C251.147 16.33 252.247 17.6133 252.247 20.18C252.247 22.5267 251.514 25.0567 250.047 27.77C248.654 30.41 246.637 33.16 243.997 36.02C241.431 38.88 238.314 41.74 234.647 44.6C231.054 47.3867 227.021 50.0633 222.547 52.63H231.457Z" fill="#A61A23"/>
<path d="M252.35 34.59C253.377 34.59 254.183 34.92 254.77 35.58C255.357 36.1667 255.65 36.9733 255.65 38C255.65 39.0267 255.32 40.1267 254.66 41.3C254.073 42.4 253.303 43.4267 252.35 44.38C251.47 45.3333 250.443 46.1033 249.27 46.69C248.17 47.2767 247.107 47.57 246.08 47.57C243.807 47.57 242.67 46.4333 242.67 44.16C242.67 43.1333 242.963 42.07 243.55 40.97C244.21 39.7967 245.017 38.77 245.97 37.89C246.923 36.9367 247.95 36.1667 249.05 35.58C250.223 34.92 251.323 34.59 252.35 34.59ZM234.64 74.63C233.98 75.73 233.467 76.61 233.1 77.27C232.733 77.8567 232.477 78.3333 232.33 78.7C232.183 79.0667 232.073 79.36 232 79.58C232 79.7267 232 79.91 232 80.13C232 80.6433 232.183 81.0833 232.55 81.45C232.99 81.8167 233.503 82 234.09 82C237.61 82 243.073 76.5367 250.48 65.61C251.067 64.73 251.507 64.29 251.8 64.29C252.02 64.29 252.13 64.3633 252.13 64.51C252.13 64.6567 251.837 65.1333 251.25 65.94C250.737 66.6733 250.077 67.59 249.27 68.69C248.537 69.79 247.693 70.9633 246.74 72.21C245.86 73.3833 245.053 74.4467 244.32 75.4C242.047 78.1867 239.993 80.2033 238.16 81.45C236.327 82.6233 234.457 83.21 232.55 83.21C230.643 83.21 228.993 82.4767 227.6 81.01C226.28 79.5433 225.62 77.7833 225.62 75.73C225.62 74.41 225.877 73.0167 226.39 71.55C226.977 70.01 227.93 68.14 229.25 65.94L237.17 52.63C237.903 52.85 238.6 52.9967 239.26 53.07C239.993 53.1433 240.873 53.18 241.9 53.18C242.56 53.18 243.403 53.1433 244.43 53.07C245.53 52.9233 246.593 52.7767 247.62 52.63L234.64 74.63ZM271.865 52.85C275.311 52.85 277.035 54.7933 277.035 58.68C277.035 59.9267 276.815 61.1733 276.375 62.42C276.008 63.6667 275.495 64.7667 274.835 65.72C274.175 66.6733 273.405 67.4433 272.525 68.03C271.718 68.6167 270.875 68.91 269.995 68.91C268.968 68.91 268.125 68.6167 267.465 68.03C266.878 67.37 266.585 66.5267 266.585 65.5C266.585 62.5667 268.601 60.3667 272.635 58.9C273.661 58.5333 274.358 58.1667 274.725 57.8C275.091 57.4333 275.275 56.9567 275.275 56.37C275.275 55.5633 275.018 54.94 274.505 54.5C274.065 53.9867 273.441 53.73 272.635 53.73C271.828 53.73 270.838 54.17 269.665 55.05C268.491 55.8567 267.281 56.9567 266.035 58.35C264.788 59.7433 263.541 61.32 262.295 63.08C261.048 64.7667 259.911 66.49 258.885 68.25C257.931 70.01 257.125 71.6967 256.465 73.31C255.878 74.9233 255.585 76.3167 255.585 77.49C255.585 78.8833 256.098 80.02 257.125 80.9C258.225 81.7067 259.618 82.11 261.305 82.11C264.165 82.11 267.355 80.68 270.875 77.82C274.468 74.8867 277.988 70.8167 281.435 65.61C282.021 64.73 282.498 64.29 282.865 64.29C283.011 64.29 283.085 64.3633 283.085 64.51C283.085 64.6567 282.791 65.1333 282.205 65.94C281.691 66.6733 281.031 67.5533 280.225 68.58C279.491 69.5333 278.685 70.56 277.805 71.66C276.998 72.6867 276.265 73.5667 275.605 74.3C272.818 77.38 270.141 79.6533 267.575 81.12C265.081 82.5133 262.515 83.21 259.875 83.21C256.501 83.21 253.678 82.22 251.405 80.24C249.131 78.1867 247.995 75.6567 247.995 72.65C247.995 70.45 248.728 68.1767 250.195 65.83C251.661 63.4833 253.531 61.3567 255.805 59.45C258.151 57.47 260.718 55.8933 263.505 54.72C266.365 53.4733 269.151 52.85 271.865 52.85ZM304.342 53.84C303.462 53.84 302.362 54.3167 301.042 55.27C299.796 56.15 298.476 57.36 297.082 58.9C295.689 60.3667 294.296 62.0533 292.902 63.96C291.582 65.7933 290.372 67.6633 289.272 69.57C288.172 71.4033 287.256 73.2 286.522 74.96C285.862 76.6467 285.532 78.0767 285.532 79.25C285.532 80.0567 285.752 80.7533 286.192 81.34C286.632 81.8533 287.219 82.11 287.952 82.11C289.566 82.11 291.326 81.2667 293.232 79.58C295.139 77.8933 297.266 75.18 299.612 71.44C301.812 68.0667 303.572 65.06 304.892 62.42C306.212 59.78 306.872 57.8733 306.872 56.7C306.872 54.7933 306.029 53.84 304.342 53.84ZM310.832 53.07C311.639 53.2167 312.299 53.3267 312.812 53.4C313.399 53.4733 314.132 53.51 315.012 53.51C315.526 53.51 315.966 53.51 316.332 53.51C316.772 53.51 317.212 53.51 317.652 53.51C318.092 53.4367 318.606 53.3633 319.192 53.29C319.779 53.2167 320.476 53.1433 321.282 53.07L314.022 65.06C311.896 68.58 310.282 71.2933 309.182 73.2C308.082 75.1067 307.239 76.5367 306.652 77.49C306.139 78.37 305.846 78.9567 305.772 79.25C305.699 79.5433 305.662 79.8367 305.662 80.13C305.662 81.3767 306.396 82 307.862 82C309.622 82 311.896 80.6067 314.682 77.82C317.469 75.0333 320.696 70.9633 324.362 65.61C324.949 64.73 325.389 64.29 325.682 64.29C325.902 64.29 326.012 64.3633 326.012 64.51C326.012 64.6567 325.719 65.1333 325.132 65.94C324.619 66.6733 323.959 67.59 323.152 68.69C322.419 69.79 321.576 70.9633 320.622 72.21C319.669 73.3833 318.826 74.4467 318.092 75.4C315.892 78.1867 313.876 80.2033 312.042 81.45C310.282 82.6233 308.449 83.21 306.542 83.21C304.562 83.21 302.876 82.5133 301.482 81.12C300.089 79.6533 299.392 77.8933 299.392 75.84C299.392 74.3 299.906 72.5033 300.932 70.45C298.292 74.9967 295.872 78.26 293.672 80.24C291.472 82.22 289.272 83.21 287.072 83.21C285.899 83.21 284.762 82.9533 283.662 82.44C282.636 81.9267 281.719 81.23 280.912 80.35C280.179 79.47 279.556 78.4433 279.042 77.27C278.602 76.0233 278.382 74.74 278.382 73.42C278.382 71.1467 279.152 68.8 280.692 66.38C282.232 63.96 284.212 61.76 286.632 59.78C289.052 57.7267 291.729 56.0767 294.662 54.83C297.596 53.51 300.419 52.85 303.132 52.85C306.139 52.85 307.642 54.06 307.642 56.48C307.642 57.2867 307.532 57.9833 307.312 58.57C307.166 59.1567 306.799 60 306.212 61.1L310.832 53.07ZM349.626 52.63L349.186 53.4H342.146L328.286 76.72C327.333 78.4067 326.856 79.58 326.856 80.24C326.856 81.4867 327.516 82.11 328.836 82.11C330.963 82.11 333.419 80.79 336.206 78.15C338.993 75.4367 342.256 71.2567 345.996 65.61C346.583 64.73 347.059 64.29 347.426 64.29C347.573 64.29 347.646 64.3633 347.646 64.51C347.646 64.6567 347.353 65.17 346.766 66.05C346.179 66.8567 345.483 67.8467 344.676 69.02C343.869 70.12 342.989 71.2567 342.036 72.43C341.156 73.6033 340.386 74.5933 339.726 75.4C337.453 78.1867 335.399 80.2033 333.566 81.45C331.806 82.6233 330.009 83.21 328.176 83.21C326.049 83.21 324.216 82.4767 322.676 81.01C321.209 79.5433 320.476 77.7467 320.476 75.62C320.476 74.3733 320.733 73.0533 321.246 71.66C321.833 70.2667 322.933 68.25 324.546 65.61L331.806 53.4H326.306L326.746 52.63H332.246L338.516 42.07C339.323 42.4367 339.983 42.6567 340.496 42.73C341.083 42.8033 341.853 42.84 342.806 42.84C343.833 42.84 344.676 42.8033 345.336 42.73C345.996 42.6567 347.169 42.4367 348.856 42.07L342.586 52.63H349.626ZM354.055 68.03C356.475 67.37 358.455 66.6367 359.995 65.83C361.609 65.0233 363.075 63.9967 364.395 62.75C365.642 61.5033 366.669 60.1833 367.475 58.79C368.282 57.3967 368.685 56.1867 368.685 55.16C368.685 54.06 368.062 53.51 366.815 53.51C365.349 53.51 363.479 54.83 361.205 57.47C358.932 60.0367 356.549 63.5567 354.055 68.03ZM353.725 68.8C352.919 70.1933 352.259 71.7333 351.745 73.42C351.232 75.0333 350.975 76.4633 350.975 77.71C350.975 80.79 352.735 82.33 356.255 82.33C362.929 82.33 369.932 76.7567 377.265 65.61C377.852 64.73 378.292 64.29 378.585 64.29C378.805 64.29 378.915 64.3633 378.915 64.51C378.915 64.73 378.659 65.2067 378.145 65.94C377.632 66.6733 377.009 67.5533 376.275 68.58C375.615 69.5333 374.845 70.5233 373.965 71.55C373.159 72.5767 372.425 73.42 371.765 74.08C368.685 77.38 365.862 79.7267 363.295 81.12C360.802 82.5133 358.199 83.21 355.485 83.21C351.965 83.21 349.069 82.22 346.795 80.24C344.522 78.26 343.385 75.73 343.385 72.65C343.385 70.3767 344.119 68.0667 345.585 65.72C347.052 63.3733 348.922 61.2467 351.195 59.34C353.542 57.4333 356.109 55.8933 358.895 54.72C361.755 53.4733 364.579 52.85 367.365 52.85C369.199 52.85 370.702 53.29 371.875 54.17C373.122 55.05 373.745 56.1133 373.745 57.36C373.745 59.7067 372.059 61.8333 368.685 63.74C365.312 65.6467 360.325 67.3333 353.725 68.8Z" fill="#A61A23"/>
</svg>
